<?xml version="1.0" encoding="us-ascii" standalone="no"?><svg xmlns="http://www.w3.org/2000/svg" xmlns:xlink="http://www.w3.org/1999/xlink" contentStyleType="text/css" height="583px" preserveAspectRatio="none" style="width:704px;height:583px;background:#FFFFFF;" version="1.1" viewBox="0 0 704 583" width="704px" zoomAndPan="magnify"><defs/><g><text fill="#000000" font-family="sans-serif" font-size="14" font-weight="bold" lengthAdjust="spacing" textLength="217" x="236.5" y="23.5352">Abstract Factory UML diagram</text><!--class Client--><g id="elem_Client"><rect codeLine="13" fill="#F1F1F1" height="32" id="Client" rx="2.5" ry="2.5" style="stroke:#181818;stroke-width:0.5;" width="72" x="625" y="294.2583"/><ellipse cx="640" cy="310.2583" fill="#ADD1B2" rx="11" ry="11" style="stroke:#181818;stroke-width:1.0;"/><path d="M642.4731,316.4013 Q641.8921,316.7002 641.2529,316.8496 Q640.6138,316.999 639.9082,316.999 Q637.4014,316.999 636.0815,315.3471 Q634.7617,313.6953 634.7617,310.5742 Q634.7617,307.4448 636.0815,305.7929 Q637.4014,304.1411 639.9082,304.1411 Q640.6138,304.1411 641.2612,304.2905 Q641.9087,304.4399 642.4731,304.7388 L642.4731,307.4614 Q641.8423,306.8804 641.2488,306.6106 Q640.6553,306.3408 640.0244,306.3408 Q638.6797,306.3408 637.9949,307.4075 Q637.3101,308.4741 637.3101,310.5742 Q637.3101,312.666 637.9949,313.7326 Q638.6797,314.7993 640.0244,314.7993 Q640.6553,314.7993 641.2488,314.5295 Q641.8423,314.2597 642.4731,313.6787 Z " fill="#000000"/><text fill="#000000" font-family="sans-serif" font-size="14" lengthAdjust="spacing" textLength="40" x="654" y="315.5493">Client</text></g><!--class AbstractFactory--><g id="elem_AbstractFactory"><rect codeLine="15" fill="#F1F1F1" height="81.5977" id="AbstractFactory" rx="2.5" ry="2.5" style="stroke:#181818;stroke-width:0.5;" width="141" x="449.5" y="269.4683"/><ellipse cx="465.4" cy="289.7788" fill="#B4A7E5" rx="11" ry="11" style="stroke:#181818;stroke-width:1.0;"/><path d="M461.8277,286.044 L461.8277,283.8858 L469.2071,283.8858 L469.2071,286.044 L466.7418,286.044 L466.7418,294.1206 L469.2071,294.1206 L469.2071,296.2788 L461.8277,296.2788 L461.8277,294.1206 L464.2931,294.1206 L464.2931,286.044 Z " fill="#000000"/><text fill="#000000" font-family="sans-serif" font-size="12" font-style="italic" lengthAdjust="spacing" textLength="62" x="502.1" y="286.0698">&#171;interface&#187;</text><text fill="#000000" font-family="sans-serif" font-size="14" font-style="italic" lengthAdjust="spacing" textLength="107" x="479.6" y="302.1362">AbstractFactory</text><line style="stroke:#181818;stroke-width:0.5;" x1="450.5" x2="589.5" y1="310.0894" y2="310.0894"/><ellipse cx="460.5" cy="323.8335" fill="#84BE84" rx="3" ry="3" style="stroke:#038048;stroke-width:1.0;"/><text fill="#000000" font-family="sans-serif" font-size="14" lengthAdjust="spacing" textLength="115" x="469.5" y="327.6245">createProductA()</text><ellipse cx="460.5" cy="340.3218" fill="#84BE84" rx="3" ry="3" style="stroke:#038048;stroke-width:1.0;"/><text fill="#000000" font-family="sans-serif" font-size="14" lengthAdjust="spacing" textLength="113" x="469.5" y="344.1128">createProductB()</text></g><!--class ConcreteFactory1--><g id="elem_ConcreteFactory1"><rect codeLine="20" fill="#F1F1F1" height="72.9766" id="ConcreteFactory1" rx="2.5" ry="2.5" style="stroke:#181818;stroke-width:0.5;" width="153" x="340.5" y="44.4883"/><ellipse cx="355.5" cy="60.4883" fill="#ADD1B2" rx="11" ry="11" style="stroke:#181818;stroke-width:1.0;"/><path d="M357.9731,66.6313 Q357.3921,66.9302 356.7529,67.0796 Q356.1138,67.229 355.4082,67.229 Q352.9014,67.229 351.5815,65.5771 Q350.2617,63.9253 350.2617,60.8042 Q350.2617,57.6748 351.5815,56.0229 Q352.9014,54.3711 355.4082,54.3711 Q356.1138,54.3711 356.7612,54.5205 Q357.4087,54.6699 357.9731,54.9688 L357.9731,57.6914 Q357.3423,57.1104 356.7488,56.8406 Q356.1553,56.5708 355.5244,56.5708 Q354.1797,56.5708 353.4949,57.6375 Q352.8101,58.7041 352.8101,60.8042 Q352.8101,62.896 353.4949,63.9626 Q354.1797,65.0293 355.5244,65.0293 Q356.1553,65.0293 356.7488,64.7595 Q357.3423,64.4897 357.9731,63.9087 Z " fill="#000000"/><text fill="#000000" font-family="sans-serif" font-size="14" lengthAdjust="spacing" textLength="121" x="369.5" y="65.7793">ConcreteFactory1</text><line style="stroke:#181818;stroke-width:0.5;" x1="341.5" x2="492.5" y1="76.4883" y2="76.4883"/><ellipse cx="351.5" cy="90.2324" fill="#84BE84" rx="3" ry="3" style="stroke:#038048;stroke-width:1.0;"/><text fill="#000000" font-family="sans-serif" font-size="14" lengthAdjust="spacing" textLength="115" x="360.5" y="94.0234">createProductA()</text><ellipse cx="351.5" cy="106.7207" fill="#84BE84" rx="3" ry="3" style="stroke:#038048;stroke-width:1.0;"/><text fill="#000000" font-family="sans-serif" font-size="14" lengthAdjust="spacing" textLength="113" x="360.5" y="110.5117">createProductB()</text></g><!--class ConcreteFactory2--><g id="elem_ConcreteFactory2"><rect codeLine="25" fill="#F1F1F1" height="72.9766" id="ConcreteFactory2" rx="2.5" ry="2.5" style="stroke:#181818;stroke-width:0.5;" width="153" x="340.5" y="503.0583"/><ellipse cx="355.5" cy="519.0583" fill="#ADD1B2" rx="11" ry="11" style="stroke:#181818;stroke-width:1.0;"/><path d="M357.9731,525.2013 Q357.3921,525.5002 356.7529,525.6496 Q356.1138,525.799 355.4082,525.799 Q352.9014,525.799 351.5815,524.1471 Q350.2617,522.4953 350.2617,519.3742 Q350.2617,516.2448 351.5815,514.5929 Q352.9014,512.9411 355.4082,512.9411 Q356.1138,512.9411 356.7612,513.0905 Q357.4087,513.2399 357.9731,513.5387 L357.9731,516.2614 Q357.3423,515.6804 356.7488,515.4106 Q356.1553,515.1408 355.5244,515.1408 Q354.1797,515.1408 353.4949,516.2075 Q352.8101,517.2741 352.8101,519.3742 Q352.8101,521.466 353.4949,522.5326 Q354.1797,523.5993 355.5244,523.5993 Q356.1553,523.5993 356.7488,523.3295 Q357.3423,523.0597 357.9731,522.4787 Z " fill="#000000"/><text fill="#000000" font-family="sans-serif" font-size="14" lengthAdjust="spacing" textLength="121" x="369.5" y="524.3493">ConcreteFactory2</text><line style="stroke:#181818;stroke-width:0.5;" x1="341.5" x2="492.5" y1="535.0583" y2="535.0583"/><ellipse cx="351.5" cy="548.8024" fill="#84BE84" rx="3" ry="3" style="stroke:#038048;stroke-width:1.0;"/><text fill="#000000" font-family="sans-serif" font-size="14" lengthAdjust="spacing" textLength="115" x="360.5" y="552.5934">createProductA()</text><ellipse cx="351.5" cy="565.2907" fill="#84BE84" rx="3" ry="3" style="stroke:#038048;stroke-width:1.0;"/><text fill="#000000" font-family="sans-serif" font-size="14" lengthAdjust="spacing" textLength="113" x="360.5" y="569.0817">createProductB()</text></g><!--class AbstractProductA--><g id="elem_AbstractProductA"><rect codeLine="30" fill="#F1F1F1" height="40.6211" id="AbstractProductA" rx="2.5" ry="2.5" style="stroke:#181818;stroke-width:0.5;" width="152" x="7" y="289.9483"/><ellipse cx="22" cy="310.2588" fill="#B4A7E5" rx="11" ry="11" style="stroke:#181818;stroke-width:1.0;"/><path d="M18.4277,306.524 L18.4277,304.3658 L25.8071,304.3658 L25.8071,306.524 L23.3418,306.524 L23.3418,314.6006 L25.8071,314.6006 L25.8071,316.7588 L18.4277,316.7588 L18.4277,314.6006 L20.8931,314.6006 L20.8931,306.524 Z " fill="#000000"/><text fill="#000000" font-family="sans-serif" font-size="12" font-style="italic" lengthAdjust="spacing" textLength="62" x="65" y="306.5498">&#171;interface&#187;</text><text fill="#000000" font-family="sans-serif" font-size="14" font-style="italic" lengthAdjust="spacing" textLength="120" x="36" y="322.6163">AbstractProductA</text></g><!--class ProductA2--><g id="elem_ProductA2"><rect codeLine="32" fill="#F1F1F1" height="32" id="ProductA2" rx="2.5" ry="2.5" style="stroke:#181818;stroke-width:0.5;" width="104" x="55" y="411.0583"/><ellipse cx="70" cy="427.0583" fill="#ADD1B2" rx="11" ry="11" style="stroke:#181818;stroke-width:1.0;"/><path d="M72.4731,433.2013 Q71.8921,433.5002 71.2529,433.6496 Q70.6138,433.799 69.9082,433.799 Q67.4014,433.799 66.0815,432.1471 Q64.7617,430.4953 64.7617,427.3742 Q64.7617,424.2448 66.0815,422.5929 Q67.4014,420.9411 69.9082,420.9411 Q70.6138,420.9411 71.2612,421.0905 Q71.9087,421.2399 72.4731,421.5387 L72.4731,424.2614 Q71.8423,423.6804 71.2488,423.4106 Q70.6553,423.1408 70.0244,423.1408 Q68.6797,423.1408 67.9949,424.2075 Q67.3101,425.2741 67.3101,427.3742 Q67.3101,429.466 67.9949,430.5326 Q68.6797,431.5993 70.0244,431.5993 Q70.6553,431.5993 71.2488,431.3295 Q71.8423,431.0597 72.4731,430.4787 Z " fill="#000000"/><text fill="#000000" font-family="sans-serif" font-size="14" lengthAdjust="spacing" textLength="72" x="84" y="432.3493">ProductA2</text></g><!--class ProductA1--><g id="elem_ProductA1"><rect codeLine="33" fill="#F1F1F1" height="32" id="ProductA1" rx="2.5" ry="2.5" style="stroke:#181818;stroke-width:0.5;" width="104" x="55" y="177.4683"/><ellipse cx="70" cy="193.4683" fill="#ADD1B2" rx="11" ry="11" style="stroke:#181818;stroke-width:1.0;"/><path d="M72.4731,199.6113 Q71.8921,199.9102 71.2529,200.0596 Q70.6138,200.209 69.9082,200.209 Q67.4014,200.209 66.0815,198.5571 Q64.7617,196.9053 64.7617,193.7842 Q64.7617,190.6548 66.0815,189.0029 Q67.4014,187.3511 69.9082,187.3511 Q70.6138,187.3511 71.2612,187.5005 Q71.9087,187.6499 72.4731,187.9487 L72.4731,190.6714 Q71.8423,190.0904 71.2488,189.8206 Q70.6553,189.5508 70.0244,189.5508 Q68.6797,189.5508 67.9949,190.6175 Q67.3101,191.6841 67.3101,193.7842 Q67.3101,195.876 67.9949,196.9426 Q68.6797,198.0093 70.0244,198.0093 Q70.6553,198.0093 71.2488,197.7395 Q71.8423,197.4697 72.4731,196.8887 Z " fill="#000000"/><text fill="#000000" font-family="sans-serif" font-size="14" lengthAdjust="spacing" textLength="72" x="84" y="198.7593">ProductA1</text></g><!--class AbstractProductB--><g id="elem_AbstractProductB"><rect codeLine="35" fill="#F1F1F1" height="40.6211" id="AbstractProductB" rx="2.5" ry="2.5" style="stroke:#181818;stroke-width:0.5;" width="150" x="194" y="289.9483"/><ellipse cx="209" cy="310.2588" fill="#B4A7E5" rx="11" ry="11" style="stroke:#181818;stroke-width:1.0;"/><path d="M205.4277,306.524 L205.4277,304.3658 L212.8071,304.3658 L212.8071,306.524 L210.3418,306.524 L210.3418,314.6006 L212.8071,314.6006 L212.8071,316.7588 L205.4277,316.7588 L205.4277,314.6006 L207.8931,314.6006 L207.8931,306.524 Z " fill="#000000"/><text fill="#000000" font-family="sans-serif" font-size="12" font-style="italic" lengthAdjust="spacing" textLength="62" x="251" y="306.5498">&#171;interface&#187;</text><text fill="#000000" font-family="sans-serif" font-size="14" font-style="italic" lengthAdjust="spacing" textLength="118" x="223" y="322.6163">AbstractProductB</text></g><!--class ProductB2--><g id="elem_ProductB2"><rect codeLine="36" fill="#F1F1F1" height="32" id="ProductB2" rx="2.5" ry="2.5" style="stroke:#181818;stroke-width:0.5;" width="102" x="218" y="411.0583"/><ellipse cx="233" cy="427.0583" fill="#ADD1B2" rx="11" ry="11" style="stroke:#181818;stroke-width:1.0;"/><path d="M235.4731,433.2013 Q234.8921,433.5002 234.2529,433.6496 Q233.6138,433.799 232.9082,433.799 Q230.4014,433.799 229.0815,432.1471 Q227.7617,430.4953 227.7617,427.3742 Q227.7617,424.2448 229.0815,422.5929 Q230.4014,420.9411 232.9082,420.9411 Q233.6138,420.9411 234.2612,421.0905 Q234.9087,421.2399 235.4731,421.5387 L235.4731,424.2614 Q234.8423,423.6804 234.2488,423.4106 Q233.6553,423.1408 233.0244,423.1408 Q231.6797,423.1408 230.9949,424.2075 Q230.3101,425.2741 230.3101,427.3742 Q230.3101,429.466 230.9949,430.5326 Q231.6797,431.5993 233.0244,431.5993 Q233.6553,431.5993 234.2488,431.3295 Q234.8423,431.0597 235.4731,430.4787 Z " fill="#000000"/><text fill="#000000" font-family="sans-serif" font-size="14" lengthAdjust="spacing" textLength="70" x="247" y="432.3493">ProductB2</text></g><!--class ProductB1--><g id="elem_ProductB1"><rect codeLine="37" fill="#F1F1F1" height="32" id="ProductB1" rx="2.5" ry="2.5" style="stroke:#181818;stroke-width:0.5;" width="102" x="218" y="177.4683"/><ellipse cx="233" cy="193.4683" fill="#ADD1B2" rx="11" ry="11" style="stroke:#181818;stroke-width:1.0;"/><path d="M235.4731,199.6113 Q234.8921,199.9102 234.2529,200.0596 Q233.6138,200.209 232.9082,200.209 Q230.4014,200.209 229.0815,198.5571 Q227.7617,196.9053 227.7617,193.7842 Q227.7617,190.6548 229.0815,189.0029 Q230.4014,187.3511 232.9082,187.3511 Q233.6138,187.3511 234.2612,187.5005 Q234.9087,187.6499 235.4731,187.9487 L235.4731,190.6714 Q234.8423,190.0904 234.2488,189.8206 Q233.6553,189.5508 233.0244,189.5508 Q231.6797,189.5508 230.9949,190.6175 Q230.3101,191.6841 230.3101,193.7842 Q230.3101,195.876 230.9949,196.9426 Q231.6797,198.0093 233.0244,198.0093 Q233.6553,198.0093 234.2488,197.7395 Q234.8423,197.4697 235.4731,196.8887 Z " fill="#000000"/><text fill="#000000" font-family="sans-serif" font-size="14" lengthAdjust="spacing" textLength="70" x="247" y="198.7593">ProductB1</text></g><ellipse cx="269" cy="80.9783" fill="#181818" rx="2" ry="2" style="stroke:#181818;stroke-width:1.0;"/><ellipse cx="269" cy="539.5483" fill="#181818" rx="2" ry="2" style="stroke:#181818;stroke-width:1.0;"/><!--link ConcreteFactory1 to AbstractFactory--><g id="link_ConcreteFactory1_AbstractFactory"><path codeLine="39" d="M471.5,117.8183 C471.5,117.8183 471.5,248.2583 471.5,248.2583 " fill="none" id="ConcreteFactory1-to-AbstractFactory" style="stroke:#181818;stroke-width:1.0;stroke-dasharray:7.0,7.0;"/><polygon fill="none" points="478.5,248.2583,471.5,268.2583,464.5,248.2583,478.5,248.2583" style="stroke:#181818;stroke-width:1.0;"/></g><!--reverse link AbstractFactory to ConcreteFactory2--><g id="link_AbstractFactory_ConcreteFactory2"><path codeLine="41" d="M471.5,372.5183 C471.5,372.5183 471.5,502.7883 471.5,502.7883 " fill="none" id="AbstractFactory-backto-ConcreteFactory2" style="stroke:#181818;stroke-width:1.0;stroke-dasharray:7.0,7.0;"/><polygon fill="none" points="464.5,372.5183,471.5,352.5183,478.5,372.5183,464.5,372.5183" style="stroke:#181818;stroke-width:1.0;"/></g><!--link ProductB1 to apoint14--><g id="link_ProductB1_apoint14"><path d="M269,177.3483 C269,149.6483 269,94.8483 269,83.1883 " fill="none" id="ProductB1-apoint14" style="stroke:#181818;stroke-width:1.0;"/></g><!--link apoint14 to ProductA1--><g id="link_apoint14_ProductA1"><path d="M266.71,81.0383 C247.02,81.0383 107,81.0383 107,81.0383 C107,81.0383 107,146.2683 107,177.3583 " fill="none" id="apoint14-ProductA1" style="stroke:#181818;stroke-width:1.0;"/></g><!--link apoint14 to ConcreteFactory1--><g id="link_apoint14_ConcreteFactory1"><path d="M271.09,81.0383 C279.17,81.0383 309.44,81.0383 340.32,81.0383 " fill="none" id="apoint14-ConcreteFactory1" style="stroke:#181818;stroke-width:1.0;"/></g><!--link ProductB2 to apoint20--><g id="link_ProductB2_apoint20"><path d="M269,443.1783 C269,470.8783 269,525.6783 269,537.3383 " fill="none" id="ProductB2-apoint20" style="stroke:#181818;stroke-width:1.0;"/></g><!--link apoint20 to ProductA2--><g id="link_apoint20_ProductA2"><path d="M266.71,540.0383 C247.02,540.0383 107,540.0383 107,540.0383 C107,540.0383 107,474.4883 107,443.2483 " fill="none" id="apoint20-ProductA2" style="stroke:#181818;stroke-width:1.0;"/></g><!--link apoint20 to ConcreteFactory2--><g id="link_apoint20_ConcreteFactory2"><path d="M271.09,540.0383 C279.17,540.0383 309.44,540.0383 340.32,540.0383 " fill="none" id="apoint20-ConcreteFactory2" style="stroke:#181818;stroke-width:1.0;"/></g><!--link ProductA1 to AbstractProductA--><g id="link_ProductA1_AbstractProductA"><path codeLine="57" d="M107,209.7083 C107,209.7083 107,268.8383 107,268.8383 " fill="none" id="ProductA1-to-AbstractProductA" style="stroke:#181818;stroke-width:1.0;"/><polygon fill="none" points="114,268.8383,107,288.8383,100,268.8383,114,268.8383" style="stroke:#181818;stroke-width:1.0;"/></g><!--reverse link AbstractProductA to ProductA2--><g id="link_AbstractProductA_ProductA2"><path codeLine="58" d="M107,351.8783 C107,351.8783 107,410.7883 107,410.7883 " fill="none" id="AbstractProductA-backto-ProductA2" style="stroke:#181818;stroke-width:1.0;"/><polygon fill="none" points="100,351.8783,107,331.8783,114,351.8783,100,351.8783" style="stroke:#181818;stroke-width:1.0;"/></g><!--link ProductB1 to AbstractProductB--><g id="link_ProductB1_AbstractProductB"><path codeLine="60" d="M269,209.7083 C269,209.7083 269,268.8383 269,268.8383 " fill="none" id="ProductB1-to-AbstractProductB" style="stroke:#181818;stroke-width:1.0;"/><polygon fill="none" points="276,268.8383,269,288.8383,262,268.8383,276,268.8383" style="stroke:#181818;stroke-width:1.0;"/></g><!--reverse link AbstractProductB to ProductB2--><g id="link_AbstractProductB_ProductB2"><path codeLine="61" d="M269,351.8783 C269,351.8783 269,410.7883 269,410.7883 " fill="none" id="AbstractProductB-backto-ProductB2" style="stroke:#181818;stroke-width:1.0;"/><polygon fill="none" points="262,351.8783,269,331.8783,276,351.8783,262,351.8783" style="stroke:#181818;stroke-width:1.0;"/></g><!--link AbstractProductA to AbstractProductB--><!--link ProductA1 to ProductB1--><!--link ProductA2 to ProductB2--><!--link ProductB1 to ProductB2--><!--link ProductA1 to ProductA2--><!--link AbstractProductB to AbstractFactory--><!--link AbstractFactory to Client--><g id="link_AbstractFactory_Client"><path codeLine="73" d="M604.91,311.0383 C604.91,311.0383 610.57,311.0383 610.57,311.0383 " fill="none" id="AbstractFactory-Client" style="stroke:#181818;stroke-width:1.0;"/><polygon fill="#181818" points="591.91,311.0383,600.91,315.0383,596.91,311.0383,600.91,307.0383,591.91,311.0383" style="stroke:#181818;stroke-width:1.0;"/><line style="stroke:#181818;stroke-width:1.0;" x1="596.91" x2="604.91" y1="311.0383" y2="311.0383"/><polygon fill="none" points="623.57,311.0383,617.57,307.0383,611.57,311.0383,617.57,315.0383,623.57,311.0383" style="stroke:#181818;stroke-width:1.0;"/></g><!--SRC=[hLInReCm4Dtz5RSrKMDBOOwGSALEhTIbKzM1m2Mn2XYPwu2Q_diTAM23tI1LPK3Oz_pktJlEfAX2oFOTcRmWUBGlRNfuVNw2KkL7azUCTH-gQNFx2PLgaFeMeTLLVrd4OjhGIJDs1nKU24Y3KSSJMJg31IdTC7PI9GBMBVLGOxr7qp5ML7dNmKEbi276L4De3ddXf0tAThinbgRmnS0-zr0Op0bVZ2u_2yfMwzYsjDlVOoBTs23XbNRxRqp9NvZ2SeTZqtg7d4CqcQstDwZaZ6foKiwOf6KAB192dDDvGsoVLsFwZJk_XXqFN6P1Dyz210xwb8cZJ6AK5_2O7ZZt10xR5X6wUkRSS_7EwOvoo913JZYiVnCXiThPQaooST0rHA0ZqfMV9H7aHNdG9fvwNNIYajlkoT_YmV_jyTkgbynVifujER_eUm3WR_Q2AR5vhtYeny_duTm4EJzYyIHACB74SoICPp71GWn0OyTXFc3Xq71zlIX_0000]--></g></svg>