<?xml version="1.0" encoding="us-ascii" standalone="no"?><svg xmlns="http://www.w3.org/2000/svg" xmlns:xlink="http://www.w3.org/1999/xlink" contentStyleType="text/css" height="157px" preserveAspectRatio="none" style="width:306px;height:157px;background:#FFFFFF;" version="1.1" viewBox="0 0 306 157" width="306px" zoomAndPan="magnify"><defs/><g><text fill="#000000" font-family="sans-serif" font-size="14" font-weight="bold" lengthAdjust="spacing" textLength="125" x="83.5" y="23.5352">Singleton pattern</text><!--class Singleton--><g id="elem_Singleton"><rect codeLine="3" fill="#F1F1F1" height="106.0859" id="Singleton" rx="2.5" ry="2.5" style="stroke:#181818;stroke-width:0.5;" width="192" x="7" y="44.4883"/><ellipse cx="66.25" cy="64.7988" fill="#ADD1B2" rx="11" ry="11" style="stroke:#181818;stroke-width:1.0;"/><path d="M68.7231,70.9419 Q68.1421,71.2407 67.5029,71.3901 Q66.8638,71.5396 66.1582,71.5396 Q63.6514,71.5396 62.3315,69.8877 Q61.0117,68.2358 61.0117,65.1147 Q61.0117,61.9854 62.3315,60.3335 Q63.6514,58.6816 66.1582,58.6816 Q66.8638,58.6816 67.5112,58.8311 Q68.1587,58.9805 68.7231,59.2793 L68.7231,62.002 Q68.0923,61.4209 67.4988,61.1511 Q66.9053,60.8813 66.2744,60.8813 Q64.9297,60.8813 64.2449,61.948 Q63.5601,63.0146 63.5601,65.1147 Q63.5601,67.2065 64.2449,68.2732 Q64.9297,69.3398 66.2744,69.3398 Q66.9053,69.3398 67.4988,69.0701 Q68.0923,68.8003 68.7231,68.2192 Z " fill="#000000"/><text fill="#000000" font-family="sans-serif" font-size="12" font-style="italic" lengthAdjust="spacing" textLength="68" x="85.25" y="61.0898">&#171;final class&#187;</text><text fill="#000000" font-family="sans-serif" font-size="14" lengthAdjust="spacing" textLength="65" x="86.75" y="77.1563">Singleton</text><line style="stroke:#181818;stroke-width:0.5;" x1="8" x2="198" y1="85.1094" y2="85.1094"/><rect fill="none" height="6" style="stroke:#C82930;stroke-width:1.0;" width="6" x="15" y="95.8535"/><text fill="#000000" font-family="sans-serif" font-size="14" lengthAdjust="spacing" text-decoration="underline" textLength="134" x="27" y="102.6445">instance : Singleton</text><line style="stroke:#181818;stroke-width:0.5;" x1="8" x2="198" y1="109.5977" y2="109.5977"/><rect fill="#F24D5C" height="6" style="stroke:#C82930;stroke-width:1.0;" width="6" x="15" y="120.3418"/><text fill="#000000" font-family="sans-serif" font-size="14" lengthAdjust="spacing" textLength="75" x="27" y="127.1328">Singleton()</text><ellipse cx="18" cy="139.8301" fill="#84BE84" rx="3" ry="3" style="stroke:#038048;stroke-width:1.0;"/><text fill="#000000" font-family="sans-serif" font-size="14" lengthAdjust="spacing" text-decoration="underline" textLength="166" x="27" y="143.6211">getInstance() : Singleton</text></g><!--link Singleton to Singleton--><g id="link_Singleton_Singleton"><path codeLine="9" d="M199.25,78.3183 C219.45,80.2983 234,86.7083 234,97.5383 C234,107.3483 222.05,113.5283 204.78,116.0783 " fill="none" id="Singleton-to-Singleton" style="stroke:#181818;stroke-width:1.0;"/><polygon fill="#181818" points="200.25,116.7583,209.6726,119.6244,205.2123,116.1451,208.6915,111.6848,200.25,116.7583" style="stroke:#181818;stroke-width:1.0;"/><text fill="#000000" font-family="sans-serif" font-size="13" lengthAdjust="spacing" textLength="53" x="240" y="102.6066">instance</text></g><!--SRC=[LOrB2e0m34JtEKMMYlG2KhftxGbAYH8eKMnsfNTN_5LdbPd9OvGr4euiSoHT15UlIfi0XEXJ-XJMJYm-ufaxXndmaCb9lN8eo79S4WZx2bqlrJVjcNGlD9CEDzUqFx80r6rZNAtwPsa7]--></g></svg>