<?xml version="1.0" encoding="us-ascii" standalone="no"?><svg xmlns="http://www.w3.org/2000/svg" xmlns:xlink="http://www.w3.org/1999/xlink" contentStyleType="text/css" height="118px" preserveAspectRatio="none" style="width:205px;height:118px;background:#FFFFFF;" version="1.1" viewBox="0 0 205 118" width="205px" zoomAndPan="magnify"><defs/><g><!--class Singleton--><g id="elem_Singleton"><rect codeLine="1" fill="#F1F1F1" height="97.4648" id="Singleton" rx="2.5" ry="2.5" style="stroke:#181818;stroke-width:0.5;" width="184" x="7" y="7"/><ellipse cx="62.25" cy="23" fill="#ADD1B2" rx="11" ry="11" style="stroke:#181818;stroke-width:1.0;"/><path d="M64.7231,29.1431 Q64.1421,29.4419 63.5029,29.5913 Q62.8638,29.7407 62.1582,29.7407 Q59.6514,29.7407 58.3315,28.0889 Q57.0117,26.437 57.0117,23.3159 Q57.0117,20.1865 58.3315,18.5347 Q59.6514,16.8828 62.1582,16.8828 Q62.8638,16.8828 63.5112,17.0322 Q64.1587,17.1816 64.7231,17.4805 L64.7231,20.2031 Q64.0923,19.6221 63.4988,19.3523 Q62.9053,19.0825 62.2744,19.0825 Q60.9297,19.0825 60.2449,20.1492 Q59.5601,21.2158 59.5601,23.3159 Q59.5601,25.4077 60.2449,26.4744 Q60.9297,27.541 62.2744,27.541 Q62.9053,27.541 63.4988,27.2712 Q64.0923,27.0015 64.7231,26.4204 Z " fill="#000000"/><text fill="#000000" font-family="sans-serif" font-size="14" lengthAdjust="spacing" textLength="65" x="82.75" y="28.291">Singleton</text><line style="stroke:#181818;stroke-width:0.5;" x1="8" x2="190" y1="39" y2="39"/><rect fill="none" height="6" style="stroke:#C82930;stroke-width:1.0;" width="6" x="15" y="49.7441"/><text fill="#000000" font-family="sans-serif" font-size="14" lengthAdjust="spacing" textLength="134" x="27" y="56.5352">instance : Singleton</text><line style="stroke:#181818;stroke-width:0.5;" x1="8" x2="190" y1="63.4883" y2="63.4883"/><rect fill="#F24D5C" height="6" style="stroke:#C82930;stroke-width:1.0;" width="6" x="15" y="74.2324"/><text fill="#000000" font-family="sans-serif" font-size="14" lengthAdjust="spacing" textLength="75" x="27" y="81.0234">Singleton()</text><ellipse cx="18" cy="93.7207" fill="#84BE84" rx="3" ry="3" style="stroke:#038048;stroke-width:1.0;"/><text fill="#000000" font-family="sans-serif" font-size="14" lengthAdjust="spacing" textLength="158" x="27" y="97.5117">getInstance():Singleton</text></g><!--SRC=[Kr1GK4ZEIImkLWZEp4lFIIt9prEevbA00bs5pBpYaiIyv5G5AuG296cuc8OcN5HR8Jsrn1EgJqFJ2bLVBG00]--></g></svg>